<?xml version="1.0" encoding="UTF-8"?>
<svg version="1.1" xmlns="http://www.w3.org/2000/svg" width="92" height="102">
<path d="M0 0 C7.26 0 14.52 0 22 0 C22 33.66 22 67.32 22 102 C16.39 102 10.78 102 5 102 C4.67 77.91 4.34 53.82 4 29 C-2.27 38.57 -8.54 48.14 -15 58 C-17.97 62.455 -17.97 62.455 -21 67 C-25.13984311 65.6200523 -26.49485501 62.76432689 -28.75 59.25 C-29.17410156 58.62867188 -29.59820312 58.00734375 -30.03515625 57.3671875 C-33.03829239 52.73042355 -33.03829239 52.73042355 -32.87939453 49.69946289 C-31.72395851 46.15264 -29.80801149 43.32469701 -27.6953125 40.29296875 C-27.26073227 39.65430878 -26.82615204 39.0156488 -26.37840271 38.3576355 C-24.00489447 34.87824951 -21.59445311 31.42462651 -19.18725586 27.96850586 C-18.21938834 26.57570608 -17.25201692 25.18256141 -16.28515625 23.7890625 C-15.81160202 23.10814041 -15.33804779 22.42721832 -14.85014343 21.72566223 C-11.86416258 17.38815542 -9.19206512 13.01326467 -6.90405273 8.25927734 C-5.5625 6.0625 -5.5625 6.0625 0 0 Z " fill="#0B8AB0" transform="translate(70,0)"/>
<path d="M0 0 C2.4480437 2.43002682 4.28504492 5.19526459 6.1875 8.0625 C6.74139404 8.86381348 7.29528809 9.66512695 7.8659668 10.49072266 C9.01908607 12.15992214 10.16494116 13.83416175 11.30371094 15.51318359 C13.42197045 18.61862277 15.6020334 21.67702646 17.7878418 24.73510742 C19.75911273 27.50183116 21.7010235 30.28859456 23.64404297 33.07519531 C24.94173634 34.91729371 26.26563976 36.73732295 27.59765625 38.5546875 C28.34917969 39.60914063 29.10070313 40.66359375 29.875 41.75 C30.53242187 42.65234375 31.18984375 43.5546875 31.8671875 44.484375 C33 47 33 47 32.3828125 49.765625 C31 52 31 52 28 53 C24.03008168 51.09313759 21.19186025 48.43325077 18.125 45.3125 C17.32320312 44.50425781 16.52140625 43.69601563 15.6953125 42.86328125 C13.66001189 40.70114306 11.72094954 38.51958064 9.79296875 36.265625 C7.06989831 33.12751545 4.21605717 30.19799698 1.23046875 27.30859375 C0.40482422 26.50873047 -0.42082031 25.70886719 -1.27148438 24.88476562 C-2.97759663 23.24159987 -4.69127755 21.60625963 -6.41210938 19.97851562 C-14.27175257 12.31675487 -14.27175257 12.31675487 -15 6 C-13.83966553 2.38248667 -12.91972312 0.61314875 -9.75 -1.5 C-6.08002303 -2.16726854 -3.27392131 -1.70146929 0 0 Z " fill="#0A7B9E" transform="translate(21,36)"/>
<path d="M0 0 C3.81615332 0.55492162 5.46394893 2.1687163 8.0625 4.9375 C10.33937714 7.34548331 12.22254228 9.14836152 15 11 C13.36815294 18.58087246 8.42934579 26.6064475 2 31 C-5.14684723 32.94273273 -12.75027917 32.00636808 -20 31 C-18.68660927 27.39633939 -17.10455636 24.46895604 -14.8828125 21.34765625 C-14.27566406 20.48849609 -13.66851562 19.62933594 -13.04296875 18.74414062 C-12.41003906 17.85919922 -11.77710938 16.97425781 -11.125 16.0625 C-9.87704407 14.30378272 -8.62963441 12.54467766 -7.3828125 10.78515625 C-6.50544434 9.54983154 -6.50544434 9.54983154 -5.61035156 8.28955078 C-3.68904551 5.557894 -1.83112701 2.79269874 0 0 Z " fill="#0C96C0" transform="translate(20,71)"/>
<path d="M0 0 C3 0.25 3 0.25 5 2.25 C5.25 5.25 5.25 5.25 5 8.25 C3 10.25 3 10.25 0 10.5 C-3 10.25 -3 10.25 -5 8.25 C-5.25 5.25 -5.25 5.25 -5 2.25 C-3 0.25 -3 0.25 0 0 Z " fill="#0D9ECA" transform="translate(59,91.75)"/>
</svg>
